<svg id="Layer_1" data-name="Layer 1" xmlns="http://www.w3.org/2000/svg" viewBox="0 0 23 23"><defs><style>.cls-1{fill:#534a3f;}.cls-2{fill:#fff;}.cls-3{fill:#52493e;}</style></defs><title>icon_address</title><path class="cls-1" d="M11.5,7.06a2,2,0,1,0,2,2h0A2,2,0,0,0,11.5,7.06Z"/><path class="cls-1" d="M11.5,7.06a2,2,0,1,0,2,2h0A2,2,0,0,0,11.5,7.06Z"/><path class="cls-1" d="M11.5,7.06a2,2,0,1,0,2,2h0A2,2,0,0,0,11.5,7.06Z"/><path class="cls-2" d="M11.5.21A11.29,11.29,0,1,0,22.79,11.5,11.28,11.28,0,0,0,11.5.21Z"/><path class="cls-3" d="M11.5,19.58S5.85,13.32,5.85,9.08a5.65,5.65,0,1,1,11.3,0h0C17.15,13.32,11.5,19.58,11.5,19.58Z"/><path class="cls-1" d="M11.5,7.06a2,2,0,1,0,2,2,2,2,0,0,0-2-2Z"/><path class="cls-1" d="M11.5,7.06a2,2,0,1,0,2,2,2,2,0,0,0-2-2Z"/><path class="cls-1" d="M11.5,7.06a2,2,0,1,0,2,2,2,2,0,0,0-2-2Z"/><path class="cls-2" d="M11.5,7.06a2,2,0,1,0,2,2,2,2,0,0,0-2-2Z"/></svg>